<svg xmlns="http://www.w3.org/2000/svg" xmlns:xlink="http://www.w3.org/1999/xlink" width="500" zoomAndPan="magnify" viewBox="0 0 375 374.999991" height="500" preserveAspectRatio="xMidYMid meet" version="1.0"><defs><g/><clipPath id="df19f7287b"><path d="M 100 56.023438 L 275 56.023438 L 275 231 L 100 231 Z M 100 56.023438 " clip-rule="nonzero"/></clipPath><clipPath id="9864d68f1a"><path d="M 158 124 L 217 124 L 217 268.273438 L 158 268.273438 Z M 158 124 " clip-rule="nonzero"/></clipPath></defs><path fill="#38b6ff" d="M 100.265625 147.464844 L 100.265625 183.914062 L 113.941406 198.871094 L 113.941406 151.695312 Z M 100.265625 147.464844 " fill-opacity="1" fill-rule="evenodd"/><g clip-path="url(#df19f7287b)"><path fill="#38b6ff" d="M 129.234375 143.878906 L 129.234375 215.148438 L 142.910156 230.140625 L 142.910156 133.488281 L 138 132.167969 L 113.941406 125.027344 L 113.941406 84.011719 L 133.804688 78.800781 L 133.804688 113.621094 L 142.265625 111.355469 L 172.519531 103.199219 L 177.730469 101.914062 L 177.730469 72.945312 L 187.480469 70.339844 L 196.921875 72.945312 L 196.921875 101.914062 L 202.132812 103.199219 L 232.386719 111.355469 L 241.1875 113.621094 L 241.1875 78.800781 L 260.714844 84.011719 L 260.714844 125.027344 L 236.957031 132.167969 L 231.746094 133.488281 L 231.746094 230.140625 L 245.722656 215.148438 L 245.722656 143.878906 L 269.816406 136.738281 L 274.722656 135.113281 L 274.722656 73.25 L 269.511719 71.960938 L 235.976562 63.199219 L 227.515625 60.894531 L 227.515625 95.71875 L 210.929688 91.183594 L 210.929688 62.214844 L 205.71875 60.894531 L 189.101562 56.363281 L 187.480469 56.023438 L 185.515625 56.363281 L 168.933594 60.894531 L 164.058594 62.214844 L 164.058594 91.183594 L 147.445312 95.71875 L 147.445312 60.894531 L 138.679688 63.199219 L 105.480469 71.960938 L 100.265625 73.25 L 100.265625 135.113281 L 105.140625 136.738281 Z M 129.234375 143.878906 " fill-opacity="1" fill-rule="evenodd"/></g><g clip-path="url(#9864d68f1a)"><path fill="#ff3131" d="M 178.070312 167.332031 L 159.523438 235.996094 L 158.542969 239.886719 L 161.488281 242.800781 L 181.996094 263.308594 L 186.871094 268.179688 L 187.511719 267.539062 L 188.15625 268.179688 L 193.027344 263.308594 L 213.539062 242.800781 L 216.480469 239.886719 L 215.195312 235.996094 L 196.953125 167.332031 C 199.257812 166.042969 201.523438 164.726562 203.453125 162.761719 C 207.683594 158.53125 209.949219 153.015625 209.949219 146.820312 C 209.949219 140.324219 207.683594 134.773438 203.453125 130.542969 C 199.222656 126.652344 193.707031 124.046875 187.511719 124.046875 C 181.320312 124.046875 175.464844 126.652344 171.574219 130.542969 C 167.34375 134.773438 164.738281 140.324219 164.738281 146.820312 C 164.738281 153.015625 167.34375 158.53125 171.574219 162.761719 C 173.199219 164.726562 175.5 166.011719 178.105469 167.332031 Z M 193.671875 153.015625 C 192.046875 154.640625 189.78125 155.621094 187.480469 155.621094 C 184.871094 155.621094 182.605469 154.640625 181.285156 153.015625 C 179.660156 151.390625 178.679688 149.089844 178.679688 146.820312 C 178.679688 144.214844 179.660156 141.949219 181.285156 140.324219 C 182.570312 139.039062 184.871094 137.71875 187.480469 137.71875 C 189.78125 137.71875 192.046875 139.039062 193.671875 140.324219 C 195.296875 141.949219 196.277344 144.214844 196.277344 146.820312 C 196.277344 149.089844 195.296875 151.390625 193.671875 153.015625 Z M 187.480469 190.105469 L 188.121094 187.839844 L 200.8125 235.691406 L 188.121094 248.722656 L 187.480469 248.078125 L 186.835938 248.722656 L 173.804688 235.691406 L 186.835938 187.839844 Z M 187.480469 190.105469 " fill-opacity="1" fill-rule="evenodd"/></g><path fill="#38b6ff" d="M 260.714844 151.695312 L 260.714844 198.871094 L 274.722656 183.914062 L 274.722656 147.464844 Z M 260.714844 151.695312 " fill-opacity="1" fill-rule="evenodd"/><g fill="#38b6ff" fill-opacity="1"><g transform="translate(53.434693, 309.722207)"><g><path d="M 16.765625 -24.03125 C 14.816406 -24.03125 13.296875 -23.226562 12.203125 -21.625 C 11.117188 -20.03125 10.578125 -17.832031 10.578125 -15.03125 C 10.578125 -9.195312 12.789062 -6.28125 17.21875 -6.28125 C 18.5625 -6.28125 19.863281 -6.46875 21.125 -6.84375 C 22.382812 -7.21875 23.648438 -7.664062 24.921875 -8.1875 L 24.921875 -1.265625 C 22.390625 -0.140625 19.523438 0.421875 16.328125 0.421875 C 11.753906 0.421875 8.25 -0.90625 5.8125 -3.5625 C 3.375 -6.21875 2.15625 -10.050781 2.15625 -15.0625 C 2.15625 -18.207031 2.742188 -20.96875 3.921875 -23.34375 C 5.109375 -25.71875 6.8125 -27.539062 9.03125 -28.8125 C 11.25 -30.09375 13.859375 -30.734375 16.859375 -30.734375 C 20.128906 -30.734375 23.257812 -30.023438 26.25 -28.609375 L 23.734375 -22.15625 C 22.617188 -22.6875 21.5 -23.128906 20.375 -23.484375 C 19.257812 -23.847656 18.054688 -24.03125 16.765625 -24.03125 Z M 16.765625 -24.03125 "/></g></g></g><g fill="#38b6ff" fill-opacity="1"><g transform="translate(80.978549, 309.722207)"><g><path d="M 18.125 0 L 16.5625 -3.109375 L 16.390625 -3.109375 C 15.304688 -1.753906 14.195312 -0.828125 13.0625 -0.328125 C 11.925781 0.171875 10.460938 0.421875 8.671875 0.421875 C 6.453125 0.421875 4.707031 -0.238281 3.4375 -1.5625 C 2.164062 -2.894531 1.53125 -4.765625 1.53125 -7.171875 C 1.53125 -9.671875 2.398438 -11.53125 4.140625 -12.75 C 5.878906 -13.976562 8.40625 -14.671875 11.71875 -14.828125 L 15.625 -14.953125 L 15.625 -15.28125 C 15.625 -17.207031 14.671875 -18.171875 12.765625 -18.171875 C 11.054688 -18.171875 8.878906 -17.59375 6.234375 -16.4375 L 3.890625 -21.78125 C 6.628906 -23.195312 10.085938 -23.90625 14.265625 -23.90625 C 17.273438 -23.90625 19.601562 -23.15625 21.25 -21.65625 C 22.90625 -20.164062 23.734375 -18.082031 23.734375 -15.40625 L 23.734375 0 Z M 12.109375 -5.3125 C 13.085938 -5.3125 13.925781 -5.617188 14.625 -6.234375 C 15.320312 -6.859375 15.671875 -7.671875 15.671875 -8.671875 L 15.671875 -10.484375 L 13.8125 -10.40625 C 11.144531 -10.3125 9.8125 -9.332031 9.8125 -7.46875 C 9.8125 -6.03125 10.578125 -5.3125 12.109375 -5.3125 Z M 12.109375 -5.3125 "/></g></g></g><g fill="#38b6ff" fill-opacity="1"><g transform="translate(107.423966, 309.722207)"><g><path d="M 20.9375 -7.21875 C 20.9375 -4.695312 20.078125 -2.789062 18.359375 -1.5 C 16.648438 -0.21875 14.191406 0.421875 10.984375 0.421875 C 9.242188 0.421875 7.726562 0.328125 6.4375 0.140625 C 5.15625 -0.046875 3.847656 -0.390625 2.515625 -0.890625 L 2.515625 -7.375 C 3.765625 -6.820312 5.140625 -6.363281 6.640625 -6 C 8.140625 -5.644531 9.476562 -5.46875 10.65625 -5.46875 C 12.40625 -5.46875 13.28125 -5.867188 13.28125 -6.671875 C 13.28125 -7.085938 13.035156 -7.457031 12.546875 -7.78125 C 12.054688 -8.101562 10.628906 -8.738281 8.265625 -9.6875 C 6.109375 -10.5625 4.601562 -11.5625 3.75 -12.6875 C 2.894531 -13.820312 2.46875 -15.253906 2.46875 -16.984375 C 2.46875 -19.160156 3.3125 -20.859375 5 -22.078125 C 6.6875 -23.296875 9.066406 -23.90625 12.140625 -23.90625 C 13.691406 -23.90625 15.144531 -23.734375 16.5 -23.390625 C 17.863281 -23.054688 19.28125 -22.5625 20.75 -21.90625 L 18.546875 -16.6875 C 17.472656 -17.164062 16.332031 -17.570312 15.125 -17.90625 C 13.925781 -18.25 12.945312 -18.421875 12.1875 -18.421875 C 10.863281 -18.421875 10.203125 -18.097656 10.203125 -17.453125 C 10.203125 -17.054688 10.429688 -16.710938 10.890625 -16.421875 C 11.359375 -16.140625 12.695312 -15.566406 14.90625 -14.703125 C 16.550781 -14.023438 17.773438 -13.359375 18.578125 -12.703125 C 19.390625 -12.054688 19.984375 -11.289062 20.359375 -10.40625 C 20.742188 -9.53125 20.9375 -8.46875 20.9375 -7.21875 Z M 20.9375 -7.21875 "/></g></g></g><g fill="#38b6ff" fill-opacity="1"><g transform="translate(130.055938, 309.722207)"><g><path d="M 14.296875 -5.984375 C 15.390625 -5.984375 16.695312 -6.253906 18.21875 -6.796875 L 18.21875 -0.890625 C 17.125 -0.421875 16.082031 -0.0859375 15.09375 0.109375 C 14.113281 0.316406 12.957031 0.421875 11.625 0.421875 C 8.90625 0.421875 6.941406 -0.242188 5.734375 -1.578125 C 4.535156 -2.921875 3.9375 -4.972656 3.9375 -7.734375 L 3.9375 -17.40625 L 1.09375 -17.40625 L 1.09375 -20.703125 L 4.703125 -23.265625 L 6.796875 -28.1875 L 12.109375 -28.1875 L 12.109375 -23.484375 L 17.875 -23.484375 L 17.875 -17.40625 L 12.109375 -17.40625 L 12.109375 -8.265625 C 12.109375 -6.742188 12.835938 -5.984375 14.296875 -5.984375 Z M 14.296875 -5.984375 "/></g></g></g><g fill="#38b6ff" fill-opacity="1"><g transform="translate(149.579122, 309.722207)"><g><path d="M 16.984375 -23.90625 C 17.679688 -23.90625 18.347656 -23.847656 18.984375 -23.734375 L 19.4375 -23.65625 L 18.71875 -16 C 18.050781 -16.164062 17.132812 -16.25 15.96875 -16.25 C 14.195312 -16.25 12.910156 -15.84375 12.109375 -15.03125 C 11.304688 -14.226562 10.90625 -13.066406 10.90625 -11.546875 L 10.90625 0 L 2.796875 0 L 2.796875 -23.484375 L 8.828125 -23.484375 L 10.09375 -19.734375 L 10.484375 -19.734375 C 11.160156 -20.972656 12.101562 -21.976562 13.3125 -22.75 C 14.519531 -23.519531 15.742188 -23.90625 16.984375 -23.90625 Z M 16.984375 -23.90625 "/></g></g></g><g fill="#38b6ff" fill-opacity="1"><g transform="translate(169.496086, 309.722207)"><g><path d="M 19.53125 0 L 18.515625 -2.921875 L 18.03125 -2.921875 C 17.351562 -1.847656 16.410156 -1.019531 15.203125 -0.4375 C 13.992188 0.132812 12.570312 0.421875 10.9375 0.421875 C 8.351562 0.421875 6.34375 -0.328125 4.90625 -1.828125 C 3.46875 -3.328125 2.75 -5.445312 2.75 -8.1875 L 2.75 -23.484375 L 10.859375 -23.484375 L 10.859375 -10.65625 C 10.859375 -9.125 11.078125 -7.960938 11.515625 -7.171875 C 11.953125 -6.378906 12.664062 -5.984375 13.65625 -5.984375 C 15.050781 -5.984375 16.046875 -6.53125 16.640625 -7.625 C 17.234375 -8.726562 17.53125 -10.585938 17.53125 -13.203125 L 17.53125 -23.484375 L 25.640625 -23.484375 L 25.640625 0 Z M 19.53125 0 "/></g></g></g><g fill="#38b6ff" fill-opacity="1"><g transform="translate(197.931128, 309.722207)"><g><path d="M 31.625 0 L 31.625 -12.765625 C 31.625 -14.359375 31.40625 -15.550781 30.96875 -16.34375 C 30.539062 -17.132812 29.859375 -17.53125 28.921875 -17.53125 C 27.671875 -17.53125 26.753906 -17 26.171875 -15.9375 C 25.597656 -14.875 25.3125 -13.207031 25.3125 -10.9375 L 25.3125 0 L 17.1875 0 L 17.1875 -12.765625 C 17.1875 -14.359375 16.976562 -15.550781 16.5625 -16.34375 C 16.144531 -17.132812 15.472656 -17.53125 14.546875 -17.53125 C 13.273438 -17.53125 12.347656 -16.960938 11.765625 -15.828125 C 11.191406 -14.703125 10.90625 -12.851562 10.90625 -10.28125 L 10.90625 0 L 2.796875 0 L 2.796875 -23.484375 L 8.90625 -23.484375 L 9.921875 -20.578125 L 10.40625 -20.578125 C 11.03125 -21.660156 11.929688 -22.484375 13.109375 -23.046875 C 14.296875 -23.617188 15.640625 -23.90625 17.140625 -23.90625 C 20.523438 -23.90625 22.90625 -22.875 24.28125 -20.8125 L 24.921875 -20.8125 C 25.578125 -21.78125 26.492188 -22.535156 27.671875 -23.078125 C 28.859375 -23.628906 30.164062 -23.90625 31.59375 -23.90625 C 34.363281 -23.90625 36.410156 -23.191406 37.734375 -21.765625 C 39.066406 -20.335938 39.734375 -18.175781 39.734375 -15.28125 L 39.734375 0 Z M 31.625 0 "/></g></g></g><g fill="#38b6ff" fill-opacity="1"><g transform="translate(240.376437, 309.722207)"><g><path d="M 32.125 0 L 21.390625 0 L 10.328125 -21.34375 L 10.140625 -21.34375 C 10.398438 -17.988281 10.53125 -15.425781 10.53125 -13.65625 L 10.53125 0 L 3.28125 0 L 3.28125 -30.3125 L 13.96875 -30.3125 L 25 -9.25 L 25.125 -9.25 C 24.925781 -12.300781 24.828125 -14.753906 24.828125 -16.609375 L 24.828125 -30.3125 L 32.125 -30.3125 Z M 32.125 0 "/></g></g></g><g fill="#38b6ff" fill-opacity="1"><g transform="translate(275.775162, 309.722207)"><g><path d="M 14.140625 0.421875 C 10.222656 0.421875 7.179688 -0.617188 5.015625 -2.703125 C 2.859375 -4.785156 1.78125 -7.75 1.78125 -11.59375 C 1.78125 -15.550781 2.78125 -18.59375 4.78125 -20.71875 C 6.789062 -22.84375 9.65625 -23.90625 13.375 -23.90625 C 16.90625 -23.90625 19.632812 -22.976562 21.5625 -21.125 C 23.488281 -19.28125 24.453125 -16.625 24.453125 -13.15625 L 24.453125 -9.5625 L 9.96875 -9.5625 C 10.019531 -8.25 10.5 -7.21875 11.40625 -6.46875 C 12.3125 -5.71875 13.546875 -5.34375 15.109375 -5.34375 C 16.535156 -5.34375 17.84375 -5.476562 19.03125 -5.75 C 20.226562 -6.019531 21.523438 -6.476562 22.921875 -7.125 L 22.921875 -1.3125 C 21.648438 -0.65625 20.335938 -0.203125 18.984375 0.046875 C 17.628906 0.296875 16.015625 0.421875 14.140625 0.421875 Z M 13.65625 -18.390625 C 12.707031 -18.390625 11.910156 -18.085938 11.265625 -17.484375 C 10.617188 -16.878906 10.242188 -15.9375 10.140625 -14.65625 L 17.09375 -14.65625 C 17.070312 -15.789062 16.753906 -16.695312 16.140625 -17.375 C 15.523438 -18.050781 14.695312 -18.390625 13.65625 -18.390625 Z M 13.65625 -18.390625 "/></g></g></g><g fill="#38b6ff" fill-opacity="1"><g transform="translate(302.013327, 309.722207)"><g><path d="M 14.296875 -5.984375 C 15.390625 -5.984375 16.695312 -6.253906 18.21875 -6.796875 L 18.21875 -0.890625 C 17.125 -0.421875 16.082031 -0.0859375 15.09375 0.109375 C 14.113281 0.316406 12.957031 0.421875 11.625 0.421875 C 8.90625 0.421875 6.941406 -0.242188 5.734375 -1.578125 C 4.535156 -2.921875 3.9375 -4.972656 3.9375 -7.734375 L 3.9375 -17.40625 L 1.09375 -17.40625 L 1.09375 -20.703125 L 4.703125 -23.265625 L 6.796875 -28.1875 L 12.109375 -28.1875 L 12.109375 -23.484375 L 17.875 -23.484375 L 17.875 -17.40625 L 12.109375 -17.40625 L 12.109375 -8.265625 C 12.109375 -6.742188 12.835938 -5.984375 14.296875 -5.984375 Z M 14.296875 -5.984375 "/></g></g></g></svg>