<svg xmlns="http://www.w3.org/2000/svg" xmlns:xlink="http://www.w3.org/1999/xlink" width="500" zoomAndPan="magnify" viewBox="0 0 375 374.999991" height="500" preserveAspectRatio="xMidYMid meet" version="1.0"><defs><clipPath id="12110276c2"><path d="M 100 56.023438 L 275 56.023438 L 275 231 L 100 231 Z M 100 56.023438 " clip-rule="nonzero"/></clipPath><clipPath id="2e86fd195c"><path d="M 158 124 L 217 124 L 217 268.273438 L 158 268.273438 Z M 158 124 " clip-rule="nonzero"/></clipPath></defs><path fill="#FFFFFF" d="M 100.265625 147.464844 L 100.265625 183.914062 L 113.941406 198.871094 L 113.941406 151.695312 Z M 100.265625 147.464844 " fill-opacity="1" fill-rule="evenodd"/><g clip-path="url(#12110276c2)"><path fill="#FFFFFF" d="M 129.234375 143.878906 L 129.234375 215.148438 L 142.910156 230.140625 L 142.910156 133.488281 L 138 132.167969 L 113.941406 125.027344 L 113.941406 84.011719 L 133.804688 78.800781 L 133.804688 113.621094 L 142.265625 111.355469 L 172.519531 103.199219 L 177.730469 101.914062 L 177.730469 72.945312 L 187.480469 70.339844 L 196.921875 72.945312 L 196.921875 101.914062 L 202.132812 103.199219 L 232.386719 111.355469 L 241.1875 113.621094 L 241.1875 78.800781 L 260.714844 84.011719 L 260.714844 125.027344 L 236.957031 132.167969 L 231.746094 133.488281 L 231.746094 230.140625 L 245.722656 215.148438 L 245.722656 143.878906 L 269.816406 136.738281 L 274.722656 135.113281 L 274.722656 73.25 L 269.511719 71.960938 L 235.976562 63.199219 L 227.515625 60.894531 L 227.515625 95.71875 L 210.929688 91.183594 L 210.929688 62.214844 L 205.71875 60.894531 L 189.101562 56.363281 L 187.480469 56.023438 L 185.515625 56.363281 L 168.933594 60.894531 L 164.058594 62.214844 L 164.058594 91.183594 L 147.445312 95.71875 L 147.445312 60.894531 L 138.679688 63.199219 L 105.480469 71.960938 L 100.265625 73.25 L 100.265625 135.113281 L 105.140625 136.738281 Z M 129.234375 143.878906 " fill-opacity="1" fill-rule="evenodd"/></g><g clip-path="url(#2e86fd195c)"><path fill="#FFFFFF" d="M 178.070312 167.332031 L 159.523438 235.996094 L 158.542969 239.886719 L 161.488281 242.800781 L 181.996094 263.308594 L 186.871094 268.179688 L 187.511719 267.539062 L 188.15625 268.179688 L 193.027344 263.308594 L 213.539062 242.800781 L 216.480469 239.886719 L 215.195312 235.996094 L 196.953125 167.332031 C 199.257812 166.042969 201.523438 164.726562 203.453125 162.761719 C 207.683594 158.53125 209.949219 153.015625 209.949219 146.820312 C 209.949219 140.324219 207.683594 134.773438 203.453125 130.542969 C 199.222656 126.652344 193.707031 124.046875 187.511719 124.046875 C 181.320312 124.046875 175.464844 126.652344 171.574219 130.542969 C 167.34375 134.773438 164.738281 140.324219 164.738281 146.820312 C 164.738281 153.015625 167.34375 158.53125 171.574219 162.761719 C 173.199219 164.726562 175.5 166.011719 178.105469 167.332031 Z M 193.671875 153.015625 C 192.046875 154.640625 189.78125 155.621094 187.480469 155.621094 C 184.871094 155.621094 182.605469 154.640625 181.285156 153.015625 C 179.660156 151.390625 178.679688 149.089844 178.679688 146.820312 C 178.679688 144.214844 179.660156 141.949219 181.285156 140.324219 C 182.570312 139.039062 184.871094 137.71875 187.480469 137.71875 C 189.78125 137.71875 192.046875 139.039062 193.671875 140.324219 C 195.296875 141.949219 196.277344 144.214844 196.277344 146.820312 C 196.277344 149.089844 195.296875 151.390625 193.671875 153.015625 Z M 187.480469 190.105469 L 188.121094 187.839844 L 200.8125 235.691406 L 188.121094 248.722656 L 187.480469 248.078125 L 186.835938 248.722656 L 173.804688 235.691406 L 186.835938 187.839844 Z M 187.480469 190.105469 " fill-opacity="1" fill-rule="evenodd"/></g><path fill="#FFFFFF" d="M 260.714844 151.695312 L 260.714844 198.871094 L 274.722656 183.914062 L 274.722656 147.464844 Z M 260.714844 151.695312 " fill-opacity="1" fill-rule="evenodd"/></svg>